<svg xmlns="http://www.w3.org/2000/svg" version="1.1" viewBox="-5.0 -10.0 110.0 135.0">
 <path d="m25.051 69.602c-0.28516-0.91406-0.68359-1.8008-1.1797-2.6211-0.68359-1.1367-1.5703-2.1797-2.6406-3.125-2.9141-2.5586-5.2852-5.7383-6.9062-9.3281-1.5586-3.4531-2.4297-7.2852-2.4297-11.305 0-7.5781 3.0742-14.441 8.043-19.422 4.9688-4.9688 11.832-8.043 19.422-8.043 3.2734 0 6.4219 0.57813 9.3477 1.6328 2.8945 1.0508 5.5703 2.5703 7.9141 4.4727h4.2227c0.44141 0 0.85156 0.15625 1.168 0.42969 0.31641 0.27344 0.53516 0.65234 0.60156 1.0859l0.41016 2.6523c0.019531 0.14844 0.074218 0.27344 0.15625 0.36719 0.085937 0.09375 0.19922 0.16797 0.33594 0.22266 0.30469 0.10547 0.62109 0.22266 0.9375 0.35938 0.33594 0.13672 0.64062 0.27344 0.91406 0.41016 0.13672 0.0625 0.27344 0.09375 0.39844 0.085937 0.125-0.011718 0.25391-0.0625 0.36719-0.14844l2.168-1.5898c0.35938-0.26172 0.77734-0.37891 1.1992-0.34766 0.24219 0.019531 0.47266 0.085937 0.69531 0.19922h9.4648c0.125 0 0.23047-0.019532 0.31641-0.0625 0.09375-0.042969 0.17969-0.11719 0.25391-0.21094l3.4219-4.2109c-0.76953-0.94922-1.2305-2.1484-1.2305-3.4648 0-1.5039 0.60938-2.875 1.6016-3.8633 0.98828-0.98828 2.3594-1.6016 3.8633-1.6016 1.5039 0 2.875 0.60938 3.8633 1.6016 0.98828 0.98828 1.6016 2.3594 1.6016 3.8633s-0.60937 2.875-1.6016 3.8633c-0.98828 0.98828-2.3594 1.6016-3.8633 1.6016-0.90625 0-1.7695-0.22266-2.5156-0.60938l-3.4219 4.2109c-0.28516 0.35938-0.63281 0.63281-1.0195 0.80859-0.39063 0.19141-0.82031 0.28516-1.2734 0.28516h-7.125l1.9805 1.9805c0.31641 0.31641 0.49609 0.72656 0.52734 1.1367 0.03125 0.41016-0.085937 0.83203-0.34766 1.1992l-0.29297 0.39844h7.1797c0.60938 0 1.1055 0.49609 1.1055 1.1055s-0.49609 1.1055-1.1055 1.1055h-8.6211c0 0.10547 0.03125 0.21094 0.085938 0.31641 0.13672 0.28516 0.27344 0.58984 0.41016 0.91406 0.13672 0.33594 0.26172 0.65234 0.35938 0.9375 0.050781 0.13672 0.125 0.25391 0.22266 0.33594 0.09375 0.085937 0.22266 0.13672 0.36719 0.15625l2.5586 0.39844h0.09375c0.42969 0.0625 0.82031 0.29297 1.0859 0.60938 0.27344 0.31641 0.42969 0.72656 0.42969 1.168v1.6328h7.3594c0.22266-1.1484 0.78906-2.1797 1.5898-2.9805 1.043-1.043 2.4961-1.6953 4.0859-1.6953 1.5898 0 3.043 0.64062 4.0859 1.6953 1.043 1.043 1.6953 2.4961 1.6953 4.0859 0 1.5898-0.64062 3.043-1.6953 4.0859-1.043 1.043-2.4961 1.6953-4.0859 1.6953-1.5898 0-3.043-0.64062-4.0859-1.6953-0.80078-0.80078-1.3594-1.8203-1.5898-2.9805h-7.3594v1.6328c0 0.44141-0.15625 0.85156-0.42969 1.168-0.27344 0.31641-0.65234 0.53516-1.0859 0.60156l-2.6523 0.41016c-0.14844 0.019531-0.27344 0.074219-0.36719 0.15625-0.09375 0.085938-0.16797 0.19922-0.22266 0.33594-0.10547 0.30469-0.22266 0.62109-0.35938 0.9375-0.13672 0.32812-0.27344 0.62109-0.41016 0.91406-0.050781 0.10547-0.085938 0.21094-0.085938 0.31641h8.5898c0.60938 0 1.1055 0.49609 1.1055 1.1055s-0.49609 1.1055-1.1055 1.1055h-7.1484l0.29297 0.39844c0.26172 0.35938 0.37891 0.77734 0.34766 1.1992s-0.21094 0.82031-0.52734 1.1367l-1.9805 1.9805h7.125c0.45312 0 0.88281 0.09375 1.2734 0.28516 0.39062 0.19141 0.72656 0.45312 1.0195 0.80859l3.4219 4.2109c0.75781-0.39062 1.6094-0.60938 2.5156-0.60938 1.5039 0 2.875 0.60938 3.8633 1.6016 0.98828 0.98828 1.6016 2.3594 1.6016 3.8633s-0.60937 2.875-1.6016 3.8633c-0.98828 0.98828-2.3594 1.6016-3.8633 1.6016-1.5039 0-2.875-0.60938-3.8633-1.6016-0.98828-0.98828-1.6016-2.3594-1.6016-3.8633 0-1.3164 0.46484-2.5156 1.2305-3.4648l-3.4219-4.2109c-0.074219-0.09375-0.15625-0.15625-0.25391-0.21094-0.09375-0.042969-0.19922-0.0625-0.31641-0.0625h-9.4648c-0.22266 0.11719-0.45312 0.17969-0.69531 0.19922-0.41016 0.03125-0.83203-0.085938-1.1992-0.34766l-2.168-1.5898c-0.11719-0.085938-0.25391-0.13672-0.36719-0.14844-0.125-0.011718-0.26172 0.019532-0.39844 0.085938-0.25391 0.125-0.53516 0.25391-0.85156 0.39062-0.019531 0-0.042969 0.019531-0.050781 0.019531-0.32812 0.13672-0.63281 0.25391-0.9375 0.35938-0.13672 0.050781-0.25391 0.125-0.33594 0.22266-0.085937 0.09375-0.13672 0.22266-0.15625 0.36719l-0.41016 2.6523c-0.0625 0.44141-0.28516 0.82031-0.60156 1.0859-0.31641 0.27344-0.72656 0.42969-1.168 0.42969h-2.2305c-0.11719 0.11719-0.25391 0.24219-0.39062 0.37891-0.31641 0.29297-0.55859 0.52734-0.74609 0.68359-0.019531 0.019531-0.042969 0.03125-0.0625 0.050781-1.0508 0.9375-1.9141 1.957-2.5898 3.0859-0.49609 0.82031-0.88281 1.6953-1.1797 2.6211 0.49609 0.19922 0.9375 0.49609 1.3047 0.86328 0.70703 0.70703 1.1484 1.6836 1.1484 2.7578 0 1.0742-0.44141 2.0508-1.1484 2.7695-0.51563 0.51562-1.168 0.88281-1.8945 1.0508v2.7461c0 3.7695-1.5352 7.1992-4.0312 9.6836-2.4844 2.4844-5.9141 4.0312-9.6836 4.0312-3.7695 0-7.1992-1.5469-9.6836-4.0312s-4.0312-5.9141-4.0312-9.6836v-2.7461c-0.72656-0.16797-1.3789-0.53516-1.8945-1.0508-0.70703-0.70703-1.1484-1.6836-1.1484-2.7578 0-1.0742 0.44141-2.0508 1.1484-2.7695 0.36719-0.36719 0.80859-0.66406 1.3047-0.86328zm31.148-57.77-2.5586 4.4219c-0.30469 0.52734-0.125 1.2109 0.39844 1.5156 0.52734 0.30469 1.2109 0.125 1.5156-0.39844l2.5586-4.4219c0.30469-0.52734 0.125-1.2109-0.39844-1.5156-0.52734-0.30469-1.2109-0.125-1.5156 0.39844zm-47.137 50.148 4.4219-2.5586c0.52734-0.30469 0.71484-0.98047 0.41016-1.5039-0.30469-0.52734-0.98047-0.71484-1.5039-0.41016l-4.4219 2.5586c-0.52734 0.30469-0.71484 0.98047-0.41016 1.5039 0.30469 0.52734 0.98047 0.71484 1.5039 0.41016zm-5.3281-17.652c-0.60938 0-1.1055-0.49609-1.1055-1.1055s0.49609-1.1055 1.1055-1.1055h5.1055c0.60938 0 1.1055 0.49609 1.1055 1.1055s-0.49609 1.1055-1.1055 1.1055zm4.2227-17.957 4.4219 2.5586c0.52734 0.30469 1.1992 0.125 1.5039-0.41016 0.30469-0.52734 0.125-1.1992-0.41016-1.5039l-4.4219-2.5586c-0.52734-0.30469-1.1992-0.125-1.5039 0.41016-0.30469 0.52734-0.125 1.1992 0.41016 1.5039zm12.621-13.441 2.5586 4.4219c0.30469 0.52734 0.98047 0.71484 1.5039 0.41016 0.52734-0.30469 0.71484-0.98047 0.41016-1.5039l-2.5586-4.4219c-0.30469-0.52734-0.98047-0.71484-1.5039-0.41016-0.52734 0.30469-0.71484 0.98047-0.41016 1.5039zm17.652-5.3281v5.1055c0 0.60938 0.49609 1.1055 1.1055 1.1055 0.60937 0 1.1055-0.49609 1.1055-1.1055v-5.1055c0-0.60937-0.49609-1.1055-1.1055-1.1055-0.60938 0-1.1055 0.49609-1.1055 1.1055zm23.148 31.391-4.5156 4.5156-2.0625-2.0625c-0.42969-0.42969-1.1367-0.42969-1.5703 0-0.42969 0.42969-0.42969 1.1367 0 1.5703l2.4961 2.4961c0.31641 0.31641 0.72656 0.47266 1.125 0.47266 0.36719 0 0.72656-0.125 1.0312-0.37891 0.042969-0.03125 0.074219-0.0625 0.10547-0.09375l4.9492-4.9492c0.42969-0.42969 0.42969-1.1367 0-1.5703-0.42969-0.42969-1.1367-0.42969-1.5703 0zm7.0195 3.3359c0-5.6953-4.6211-10.316-10.316-10.316-5.6953 0-10.316 4.6211-10.316 10.316s4.6211 10.316 10.316 10.316c2.8516 0 5.4297-1.1562 7.293-3.0195s3.0195-4.4414 3.0195-7.293zm-4.5898 5.7266c1.4648-1.4648 2.3672-3.4844 2.3672-5.7266 0-4.4727-3.6211-8.0938-8.0938-8.0938-4.4727 0-8.0938 3.6211-8.0938 8.0938s3.6211 8.0938 8.0938 8.0938c2.2305 0 4.2617-0.90625 5.7266-2.3672zm-9.9062-25.453c-1.832-1.293-3.832-2.3477-5.9688-3.125-2.6719-0.96875-5.5703-1.4961-8.5898-1.4961-6.9688 0-13.285 2.8203-17.844 7.3906-4.5703 4.5703-7.3906 10.875-7.3906 17.844 0 3.707 0.80078 7.2305 2.2305 10.398 1.4961 3.293 3.6641 6.2109 6.3477 8.5703 1.2422 1.0938 2.2734 2.3164 3.0859 3.6641 0.65234 1.0859 1.1562 2.2539 1.5039 3.4727h24.137c0.34766-1.2227 0.85156-2.3789 1.5039-3.4727 0.66406-1.0938 1.4727-2.1172 2.4297-3.0508-0.44141 0-0.84375-0.15625-1.1562-0.42969-0.31641-0.27344-0.53516-0.65234-0.60156-1.0938l-0.41016-2.6523c-0.019532-0.14844-0.074219-0.27344-0.15625-0.36719-0.085938-0.09375-0.19922-0.17969-0.33594-0.22266-0.27344-0.09375-0.57031-0.21094-0.88281-0.33594-0.019532 0-0.042969-0.011718-0.0625-0.019531-0.31641-0.13672-0.62109-0.27344-0.91406-0.41016-0.13672-0.0625-0.27344-0.09375-0.39844-0.085937-0.125 0.011718-0.25391 0.0625-0.36719 0.14844l-2.168 1.5898c-0.35938 0.26172-0.77734 0.37891-1.1992 0.34766-0.42187-0.03125-0.82031-0.21094-1.1367-0.52734l-3.875-3.875c-0.31641-0.31641-0.48438-0.71484-0.52734-1.1367-0.03125-0.41016 0.085938-0.83203 0.34766-1.1992l1.5898-2.168c0.085938-0.11719 0.13672-0.25391 0.14844-0.36719 0.011718-0.125-0.019532-0.26172-0.085938-0.39844-0.13672-0.28516-0.27344-0.58984-0.41016-0.91406-0.13672-0.33594-0.26172-0.65234-0.35938-0.9375-0.050781-0.13672-0.125-0.25391-0.22266-0.33594-0.09375-0.085938-0.22266-0.13672-0.36719-0.15625l-2.6523-0.41016c-0.44141-0.0625-0.82031-0.28516-1.0859-0.60156-0.27344-0.31641-0.42969-0.72656-0.42969-1.168v-5.4727c0-0.44141 0.15625-0.85156 0.42969-1.168 0.27344-0.31641 0.65234-0.53516 1.0859-0.60156l2.6523-0.41016c0.14844-0.019531 0.27344-0.074219 0.36719-0.15625 0.09375-0.085938 0.16797-0.19922 0.22266-0.33594 0.10547-0.30469 0.22266-0.62109 0.35938-0.9375 0.13672-0.33594 0.27344-0.64062 0.41016-0.91406 0.0625-0.13672 0.09375-0.27344 0.085938-0.39844-0.011719-0.125-0.0625-0.25391-0.14844-0.36719l-1.5898-2.168c-0.26172-0.35938-0.37891-0.77734-0.34766-1.1992s0.21094-0.82031 0.51562-1.1367l3.875-3.875c0.31641-0.31641 0.71484-0.48438 1.1367-0.52734 0.41016-0.03125 0.83203 0.085937 1.1992 0.34766l2.168 1.5898c0.11719 0.085937 0.25391 0.13672 0.36719 0.14844 0.125 0.011719 0.26172-0.019531 0.39844-0.085937 0.27344-0.13672 0.57812-0.27344 0.91406-0.41016 0.33594-0.13672 0.65234-0.26172 0.9375-0.35938 0.13672-0.050781 0.25391-0.125 0.33594-0.22266 0.085938-0.10547 0.13672-0.22266 0.15625-0.36719l0.39844-2.5586v-0.09375c0.042968-0.29297 0.15625-0.55859 0.32812-0.78906zm20.125 22.465 2.293-0.35938v-4.7578l-2.293-0.35938c-0.55859-0.085938-1.0508-0.31641-1.4531-0.65234-0.41016-0.33594-0.71484-0.78906-0.89453-1.3164-0.10547-0.30469-0.21094-0.57031-0.30469-0.80859-0.10547-0.25391-0.22266-0.51562-0.35938-0.78906-0.24219-0.49609-0.33594-1.0312-0.29297-1.5586 0.042969-0.51562 0.23047-1.0117 0.53516-1.4531 0.011719-0.019531 0.03125-0.042969 0.042969-0.0625l1.3477-1.8438-3.3594-3.3594-1.875 1.3672c-0.45312 0.32812-0.95703 0.51562-1.4961 0.57031-0.52734 0.042968-1.0625-0.050782-1.5586-0.29297-0.28516-0.13672-0.54688-0.26172-0.78906-0.35938-0.25391-0.10547-0.52734-0.21094-0.80859-0.30469-0.52734-0.17969-0.98047-0.49609-1.3164-0.89453-0.33594-0.39844-0.55859-0.89453-0.64062-1.4531l-0.35938-2.293h-4.7578l-0.35938 2.293c-0.085937 0.55859-0.31641 1.0508-0.65234 1.4531-0.33594 0.41016-0.78906 0.71484-1.3164 0.89453-0.30469 0.10547-0.57812 0.21094-0.80859 0.30469s-0.49609 0.22266-0.78906 0.35938c-0.49609 0.24219-1.0312 0.33594-1.5586 0.29297-0.52734-0.050782-1.043-0.24219-1.4961-0.57031l-1.875-1.3672-3.3594 3.3594 1.3672 1.875c0.32812 0.45312 0.51562 0.95703 0.57031 1.4961 0.042969 0.52734-0.050781 1.0625-0.29297 1.5586-0.13672 0.28516-0.26172 0.54688-0.35938 0.78906-0.10547 0.25391-0.21094 0.52734-0.30469 0.80859-0.17969 0.52734-0.49609 0.98047-0.89453 1.3164-0.39844 0.33594-0.89453 0.55859-1.4531 0.65234l-2.293 0.35938v4.7578l2.293 0.35938c0.55859 0.085937 1.0508 0.30469 1.4531 0.65234 0.41016 0.33594 0.71484 0.78906 0.89453 1.3164 0.10547 0.30469 0.21094 0.57031 0.30469 0.80859 0.10547 0.25391 0.22266 0.51562 0.35938 0.78906 0.24219 0.49609 0.33594 1.0312 0.29297 1.5586-0.042968 0.52734-0.24219 1.043-0.57031 1.4961l-1.3672 1.875 3.3594 3.3594 1.875-1.3672c0.45312-0.32812 0.95703-0.51562 1.4961-0.57031 0.52734-0.050782 1.0625 0.050781 1.5586 0.29297 0.27344 0.13672 0.53516 0.25391 0.78906 0.35938l0.050781 0.019531c0.22266 0.09375 0.47266 0.19141 0.75781 0.28516 0.52734 0.17969 0.98047 0.49609 1.3164 0.89453 0.33594 0.39844 0.55859 0.89453 0.65234 1.4531l0.35938 2.293h4.7578l0.35938-2.293c0.085937-0.55859 0.30469-1.0508 0.64062-1.4531 0.33594-0.41016 0.78906-0.71484 1.3164-0.89453 0.28516-0.09375 0.55859-0.19922 0.80859-0.30469 0.019532 0 0.03125-0.011719 0.050782-0.019532 0.22266-0.09375 0.47266-0.21094 0.73828-0.33594 0.49609-0.24219 1.0312-0.33594 1.5586-0.29297 0.52734 0.042969 1.043 0.24219 1.4961 0.57031l1.875 1.3672 3.3594-3.3594-1.3477-1.8438s-0.042969-0.050781-0.050781-0.074219c-0.30469-0.44141-0.48438-0.9375-0.53516-1.4414-0.042969-0.52734 0.050781-1.0625 0.29297-1.5586 0.13672-0.27344 0.25391-0.53516 0.35938-0.78906 0.10547-0.25391 0.21094-0.52734 0.30469-0.80859 0.17969-0.52734 0.49609-0.98047 0.89453-1.3164 0.39844-0.33594 0.89453-0.55859 1.4531-0.65234zm16.137-25.105c0.58984-0.58984 0.94922-1.3984 0.94922-2.293s-0.36719-1.707-0.94922-2.293c-0.58984-0.58984-1.3984-0.94922-2.293-0.94922-0.89453 0-1.707 0.36719-2.293 0.94922-0.58984 0.58984-0.94922 1.3984-0.94922 2.293s0.36719 1.707 0.94922 2.293c0.58984 0.58984 1.3984 0.94922 2.293 0.94922 0.89453 0 1.707-0.36719 2.293-0.94922zm0 49.348c0.58984-0.58984 0.94922-1.3984 0.94922-2.293s-0.36719-1.707-0.94922-2.293c-0.57812-0.58984-1.3984-0.94922-2.293-0.94922-0.89453 0-1.707 0.36719-2.293 0.94922-0.58984 0.57812-0.94922 1.3984-0.94922 2.293s0.36719 1.707 0.94922 2.293c0.57812 0.58984 1.3984 0.94922 2.293 0.94922 0.89453 0 1.707-0.36719 2.293-0.94922zm3.9258-24.453c0.64062-0.64062 1.043-1.5352 1.043-2.5156 0-0.98047-0.39844-1.875-1.043-2.5156-0.64062-0.64062-1.5352-1.043-2.5156-1.043s-1.875 0.39844-2.5156 1.043c-0.64062 0.64062-1.043 1.5352-1.043 2.5156 0 0.98047 0.39844 1.875 1.043 2.5156 0.64062 0.64062 1.5352 1.043 2.5156 1.043s1.875-0.39844 2.5156-1.043zm-43.262 32.293h-22.98v2.6523c0 3.1562 1.293 6.0312 3.3789 8.1172 2.0859 2.0859 4.957 3.3789 8.1172 3.3789 3.1562 0 6.0312-1.293 8.1172-3.3789 2.0859-2.0859 3.3789-4.957 3.3789-8.1172v-2.6523zm1.3477-5.6016h-25.684c-0.46484 0-0.88281 0.19141-1.1914 0.49609-0.30469 0.30469-0.49609 0.72656-0.49609 1.1914s0.19141 0.88281 0.49609 1.1914c0.30469 0.30469 0.72656 0.49609 1.1914 0.49609h25.684c0.46484 0 0.88281-0.19141 1.1914-0.49609 0.30469-0.30469 0.49609-0.72656 0.49609-1.1914s-0.19141-0.88281-0.49609-1.1914c-0.30469-0.30469-0.72656-0.49609-1.1914-0.49609z" fill-rule="evenodd"/></svg>