<svg xmlns="http://www.w3.org/2000/svg" xmlns:xlink="http://www.w3.org/1999/xlink" version="1.1" x="0px" y="0px" viewBox="0 0 100 125" style="enable-background:new 0 0 100 100;" xml:space="preserve"><path d="M58.7,44.4h-2.4c-2.7,2.5-7,4.1-11.9,4.1s-9.2-1.6-11.9-4.1h-1.7c-8.7,0-15.7,5.3-15.7,11.9h58.6  C73.7,49.7,67,44.4,58.7,44.4z"/><path d="M44.5,10.2c-9.7,0-17.6,7.9-17.6,17.6c0,9.7,7.9,17.6,17.6,17.6c9.7,0,17.6-7.9,17.6-17.6  C62.1,18.1,54.2,10.2,44.5,10.2z M44.5,41.4c-7.5,0-13.7-6.1-13.7-13.7c0-1.2,0.2-2.3,0.4-3.3c1.6,0.8,4.5,1.9,7.8,1.9  c2.4,0,5-0.6,7.4-2.3c0.3-0.2,6.3-4.5,11.1-0.2c0.4,1.2,0.6,2.5,0.6,3.9C58.1,35.3,52,41.4,44.5,41.4z"/><path d="M85.8,97.3h-9.7c0.6-0.8,1-1.8,1-2.9V62.9c0-2.6-2.2-4.8-4.8-4.8H16.5c-2.6,0-4.8,2.2-4.8,4.8v31.5  c0,1.1,0.4,2.1,1,2.9H1.8c-0.5,0-0.9,0.4-0.9,0.9v0.1c0,0.5,0.4,0.9,0.9,0.9h84c0.5,0,0.9-0.4,0.9-0.9v-0.1  C86.7,97.7,86.3,97.3,85.8,97.3z M44.5,83.8c-3,0-5.4-2.4-5.4-5.4s2.4-5.4,5.4-5.4s5.4,2.4,5.4,5.4S47.5,83.8,44.5,83.8z"/><path d="M98.5,13.5c-2.2-8.6-11-13.8-19.6-11.6S65,12.8,67.2,21.5c1,4.1,3.6,7.4,6.9,9.5l-4.3,6.5l17.1-4.4  C95.5,30.9,100.7,22.1,98.5,13.5z M81,23.7L75.3,18l2.1-2.1l3.6,3.6l7.4-7.4l2.1,2.1L81,23.7z"/></svg>